<?xml version="1.0" encoding="UTF-8" standalone="no"?>
<!-- Created with Inkscape (http://www.inkscape.org/) -->

<svg
   xmlns:dc="http://purl.org/dc/elements/1.1/"
   xmlns:cc="http://creativecommons.org/ns#"
   xmlns:rdf="http://www.w3.org/1999/02/22-rdf-syntax-ns#"
   xmlns:svg="http://www.w3.org/2000/svg"
   xmlns="http://www.w3.org/2000/svg"
   xmlns:sodipodi="http://sodipodi.sourceforge.net/DTD/sodipodi-0.dtd"
   xmlns:inkscape="http://www.inkscape.org/namespaces/inkscape"
   width="16"
   height="16"
   viewBox="0 0 16 16"
   id="svg2"
   version="1.1"
   inkscape:version="0.91 r13725"
   sodipodi:docname="info.svg">
  <defs
     id="defs4" />
  <sodipodi:namedview
     id="base"
     pagecolor="#ffffff"
     bordercolor="#666666"
     borderopacity="1.0"
     inkscape:pageopacity="0.0"
     inkscape:pageshadow="2"
     inkscape:zoom="22.4"
     inkscape:cx="-10.821522"
     inkscape:cy="9.430136"
     inkscape:document-units="px"
     inkscape:current-layer="layer1"
     showgrid="false"
     inkscape:snap-to-guides="false"
     inkscape:window-width="1920"
     inkscape:window-height="1006"
     inkscape:window-x="0"
     inkscape:window-y="24"
     inkscape:window-maximized="1" />
  <metadata
     id="metadata7">
    <rdf:RDF>
      <cc:Work
         rdf:about="">
        <dc:format>image/svg+xml</dc:format>
        <dc:type
           rdf:resource="http://purl.org/dc/dcmitype/StillImage" />
        <dc:title />
      </cc:Work>
    </rdf:RDF>
  </metadata>
  <g
     inkscape:label="Layer 1"
     inkscape:groupmode="layer"
     id="layer1">
    <circle
       style="fill:#000000;fill-opacity:1"
       id="path4136"
       cx="8"
       cy="8"
       r="8" />
    <g
       style="font-style:normal;font-variant:normal;font-weight:bold;font-stretch:normal;font-size:13.26971245px;line-height:125%;font-family:'Ubuntu Mono';-inkscape-font-specification:'Ubuntu Mono Bold';text-align:center;letter-spacing:0px;word-spacing:0px;text-anchor:middle;fill:#ffffff;fill-opacity:1;stroke:none;stroke-width:1px;stroke-linecap:butt;stroke-linejoin:miter;stroke-opacity:1"
       id="text4856">
      <path
         d="m 8.4511702,4.471824 q 0,0.4777096 -0.3052034,0.7563736 -0.3052033,0.2786639 -0.7298341,0.2786639 -0.4246308,0 -0.7298342,-0.2786639 -0.2919337,-0.278664 -0.2919337,-0.7563736 0,-0.4909794 0.2919337,-0.7696434 0.3052034,-0.2786639 0.7298342,-0.2786639 0.4246308,0 0.7298341,0.2786639 0.3052034,0.278664 0.3052034,0.7696434 z m 2.4283578,7.762782 q -0.504249,0.238855 -0.9554197,0.318473 -0.4379005,0.09289 -0.8094525,0.09289 -0.6369462,0 -1.0748467,-0.185776 Q 7.6151783,12.274415 7.3497841,11.929402 7.0976596,11.57112 6.9915019,11.066871 6.8853442,10.562622 6.8853442,9.9124061 l 0,-2.2956603 -1.7250627,0 0,-1.3535107 3.3572373,0 0,3.8614859 q 0,0.557328 0.1990457,0.835992 0.2123154,0.265395 0.690025,0.265395 0.2255851,0 0.5440582,-0.05308 0.3184733,-0.06635 0.7165643,-0.252125 l 0.212316,1.313702 z"
         style=""
         id="path3337" />
    </g>
  </g>
</svg>
