<svg xmlns="http://www.w3.org/2000/svg" width="16" height="16" viewBox="0 0 16 16"><circle cx="8" cy="8" r="8"/><path d="M8.451 4.472q0 .478-.305.756-.305.279-.73.279-.424 0-.73-.279-.292-.278-.292-.756 0-.491.292-.77.306-.278.73-.278.425 0 .73.278.305.279.305.77zm2.429 7.763q-.505.238-.956.318-.438.093-.81.093-.636 0-1.074-.186-.425-.186-.69-.53-.252-.359-.358-.863-.107-.504-.107-1.155V7.617H5.16V6.263h3.358v3.862q0 .557.199.836.212.265.69.265.225 0 .544-.053.318-.066.716-.252l.213 1.314z" font-weight="700" font-size="13.27" font-family="Ubuntu Mono" letter-spacing="0" word-spacing="0" text-anchor="middle" fill="#fff"/></svg>